<svg width="70" height="70" viewBox="0 0 70 70" fill="none" xmlns="http://www.w3.org/2000/svg">
<rect x="0.5" y="0.5" width="69" height="69" rx="15.5" stroke="#F1F0F5"/>
<g clip-path="url(#clip0_1_410)">
<path d="M28.6694 55C32.3494 55 35.336 52.0133 35.336 48.3333V41.6667H28.6694C24.9894 41.6667 22.0027 44.6533 22.0027 48.3333C22.0027 52.0133 24.9894 55 28.6694 55Z" fill="#0ACF83"/>
<path d="M22.0027 35C22.0027 31.32 24.9894 28.3333 28.6694 28.3333H35.336V41.6667H28.6694C24.9894 41.6667 22.0027 38.68 22.0027 35Z" fill="#A259FF"/>
<path d="M22.0027 21.6667C22.0027 17.9867 24.9894 15 28.6694 15H35.336V28.3333H28.6694C24.9894 28.3333 22.0027 25.3467 22.0027 21.6667Z" fill="#F24E1E"/>
<path d="M35.336 15H42.0027C45.6827 15 48.6693 17.9867 48.6693 21.6667C48.6693 25.3467 45.6827 28.3333 42.0027 28.3333H35.336V15Z" fill="#FF7262"/>
<path d="M48.6693 35C48.6693 38.68 45.6827 41.6667 42.0027 41.6667C38.3227 41.6667 35.336 38.68 35.336 35C35.336 31.32 38.3227 28.3333 42.0027 28.3333C45.6827 28.3333 48.6693 31.32 48.6693 35Z" fill="#1ABCFE"/>
</g>
<defs>
<clipPath id="clip0_1_410">
<rect width="26.672" height="40" fill="white" transform="translate(22 15)"/>
</clipPath>
</defs>
</svg>
