<svg width="70" height="70" viewBox="0 0 70 70" fill="none" xmlns="http://www.w3.org/2000/svg">
<rect x="0.5" y="0.5" width="69" height="69" rx="15.5" stroke="#F1F0F5"/>
<g clip-path="url(#clip0_1_423)">
<path d="M54.5974 24.1262C54.6117 24.1792 54.6191 24.2338 54.6192 24.2887V32.8224C54.6192 32.9319 54.5903 33.0395 54.5354 33.1343C54.4805 33.2291 54.4015 33.3077 54.3065 33.3622L47.1441 37.4859V45.6594C47.1441 45.8819 47.0259 46.0872 46.833 46.1992L31.882 54.806C31.8478 54.8254 31.8104 54.8378 31.7731 54.8511C31.7591 54.8557 31.7459 54.8643 31.7311 54.8682C31.6266 54.8957 31.5167 54.8957 31.4122 54.8682C31.3951 54.8635 31.3795 54.8542 31.3632 54.848C31.329 54.8355 31.2932 54.8246 31.2605 54.806L16.3127 46.1992C16.2177 46.1446 16.1388 46.066 16.0839 45.9713C16.029 45.8765 16.0001 45.7689 16 45.6594V20.0585C16 20.0025 16.0078 19.948 16.0218 19.8951C16.0264 19.8773 16.0373 19.8609 16.0436 19.843C16.0552 19.8104 16.0661 19.7769 16.0832 19.7466C16.0949 19.7264 16.112 19.71 16.126 19.6914C16.1439 19.6665 16.1602 19.6408 16.1812 19.619C16.1991 19.6011 16.2224 19.5879 16.2427 19.5724C16.2652 19.5537 16.2854 19.5335 16.3111 19.5187L23.7862 15.2153C23.8809 15.1609 23.9881 15.1322 24.0973 15.1322C24.2065 15.1322 24.3138 15.1609 24.4084 15.2153L31.8828 19.5187H31.8843C31.9092 19.5343 31.9302 19.5537 31.9528 19.5716C31.973 19.5871 31.9955 19.6011 32.0134 19.6183C32.0352 19.6408 32.0508 19.6665 32.0694 19.6914C32.0826 19.71 32.1005 19.7264 32.1114 19.7466C32.1293 19.7777 32.1394 19.8104 32.1519 19.843C32.1581 19.8609 32.169 19.8773 32.1736 19.8959C32.188 19.9489 32.1953 20.0036 32.1954 20.0585V36.0486L38.4238 32.4623V24.288C38.4238 24.2335 38.4316 24.1783 38.4456 24.1262C38.451 24.1075 38.4611 24.0912 38.4673 24.0733C38.4798 24.0406 38.4907 24.0072 38.5078 23.9769C38.5194 23.9566 38.5366 23.9403 38.5498 23.9216C38.5684 23.8967 38.584 23.8711 38.6058 23.8493C38.6237 23.8314 38.6462 23.8182 38.6664 23.8026C38.6898 23.784 38.71 23.7638 38.7349 23.749L46.2108 19.4456C46.3054 19.3911 46.4127 19.3624 46.5219 19.3624C46.6311 19.3624 46.7384 19.3911 46.833 19.4456L54.3073 23.749C54.3338 23.7645 54.354 23.784 54.3773 23.8019C54.3968 23.8174 54.4193 23.8314 54.4372 23.8485C54.459 23.8711 54.4745 23.8967 54.4932 23.9216C54.5072 23.9403 54.5243 23.9566 54.5352 23.9769C54.5531 24.0072 54.5632 24.0406 54.5756 24.0733C54.5826 24.0912 54.5928 24.1075 54.5974 24.1262ZM53.3732 32.4623V25.3659L50.7576 26.8717L47.1441 28.9522V36.0486L53.374 32.4623H53.3732ZM45.8989 45.2993V38.1983L42.3445 40.2283L32.1946 46.0211V53.189L45.8989 45.2993ZM17.246 21.1357V45.2993L30.9487 53.1882V46.0219L23.7901 41.9705L23.7878 41.9689L23.7847 41.9674C23.7606 41.9534 23.7403 41.9331 23.7178 41.916C23.6983 41.9005 23.6758 41.888 23.6587 41.8709L23.6571 41.8686C23.6369 41.8491 23.6229 41.825 23.6058 41.8033C23.5902 41.7823 23.5716 41.7644 23.5591 41.7426L23.5583 41.7403C23.5443 41.7169 23.5358 41.6889 23.5257 41.6625C23.5156 41.6392 23.5023 41.6174 23.4961 41.5925C23.4883 41.5629 23.4868 41.531 23.4837 41.5007C23.4806 41.4774 23.4743 41.454 23.4743 41.4307V24.722L19.8616 22.6407L17.246 21.1357ZM24.0981 16.4737L17.8705 20.0585L24.0965 23.6432L30.3233 20.0577L24.0965 16.4737H24.0981ZM27.3367 38.8454L30.9494 36.7657V21.1357L28.3338 22.6414L24.7203 24.722V40.3519L27.3367 38.8454ZM46.5219 20.704L40.2951 24.2887L46.5219 27.8735L52.7479 24.288L46.5219 20.704ZM45.8989 28.9522L42.2854 26.8717L39.6698 25.3659V32.4623L43.2825 34.542L45.8989 36.0486V28.9522ZM31.5709 44.9439L40.7042 39.7297L45.2697 37.1242L39.0475 33.5418L31.8835 37.6663L25.3542 41.4253L31.5709 44.9439Z" fill="#FF2D20"/>
</g>
<defs>
<clipPath id="clip0_1_423">
<rect width="38.688" height="40" fill="white" transform="translate(16 15)"/>
</clipPath>
</defs>
</svg>
