<svg width="70" height="70" viewBox="0 0 70 70" fill="none" xmlns="http://www.w3.org/2000/svg">
<rect x="0.5" y="0.5" width="69" height="69" rx="15.5" stroke="#F1F0F5"/>
<g clip-path="url(#clip0_1_418)">
<path d="M34.9084 15.0113C24.7387 15.0113 25.3737 19.4215 25.3737 19.4215L25.385 23.9906H35.0897V25.3623H21.5304C21.5304 25.3623 15.0228 24.6243 15.0228 34.8855C15.0228 45.147 20.7028 44.7831 20.7028 44.7831H24.0926V40.0213C24.0926 40.0213 23.9098 34.3413 29.6819 34.3413H39.3073C39.3073 34.3413 44.7152 34.4287 44.7152 29.1148V20.3286C44.7152 20.3286 45.5365 15.0113 34.9084 15.0113ZM29.5572 18.0839C29.7865 18.0837 30.0136 18.1287 30.2256 18.2164C30.4375 18.3041 30.63 18.4327 30.7922 18.5948C30.9543 18.757 31.0829 18.9495 31.1706 19.1614C31.2583 19.3733 31.3033 19.6005 31.3031 19.8298C31.3033 20.0591 31.2583 20.2863 31.1706 20.4982C31.0829 20.7101 30.9543 20.9026 30.7922 21.0648C30.63 21.2269 30.4375 21.3555 30.2256 21.4432C30.0136 21.5309 29.7865 21.5759 29.5572 21.5757C29.3279 21.5759 29.1007 21.5309 28.8888 21.4432C28.6769 21.3555 28.4844 21.2269 28.3222 21.0648C28.1601 20.9026 28.0315 20.7101 27.9438 20.4982C27.8561 20.2863 27.8111 20.0591 27.8113 19.8298C27.8111 19.6005 27.8561 19.3733 27.9438 19.1614C28.0315 18.9495 28.1601 18.757 28.3222 18.5948C28.4844 18.4327 28.6769 18.3041 28.8888 18.2164C29.1007 18.1287 29.3279 18.0837 29.5572 18.0839Z" fill="url(#paint0_linear_1_418)"/>
<path d="M35.1972 54.8629C45.3669 54.8629 44.7319 50.4527 44.7319 50.4527L44.7206 45.8838H35.0157V44.512H48.575C48.575 44.512 55.0827 45.25 55.0827 34.9885C55.0827 24.7272 49.4027 25.0911 49.4027 25.0911H46.0128V29.8527C46.0128 29.8527 46.1956 35.5327 40.4235 35.5327H30.7981C30.7981 35.5327 25.3903 35.4453 25.3903 40.7594V49.5457C25.3903 49.5457 24.5691 54.8629 35.197 54.8629H35.1972ZM40.5484 51.7906C40.319 51.7908 40.0919 51.7458 39.88 51.6581C39.6681 51.5704 39.4756 51.4418 39.3134 51.2797C39.1512 51.1175 39.0226 50.925 38.935 50.7131C38.8473 50.5012 38.8023 50.274 38.8025 50.0447C38.8023 49.8154 38.8473 49.5882 38.9349 49.3763C39.0226 49.1644 39.1512 48.9718 39.3133 48.8096C39.4755 48.6474 39.6681 48.5188 39.88 48.4312C40.0919 48.3435 40.319 48.2985 40.5484 48.2987C40.7777 48.2985 41.0048 48.3435 41.2167 48.4311C41.4287 48.5188 41.6212 48.6474 41.7834 48.8096C41.9455 48.9717 42.0741 49.1643 42.1618 49.3762C42.2495 49.5881 42.2945 49.8152 42.2943 50.0445C42.2945 50.2739 42.2495 50.501 42.1618 50.7129C42.0741 50.9248 41.9455 51.1174 41.7834 51.2795C41.6212 51.4417 41.4287 51.5703 41.2167 51.6579C41.0048 51.7456 40.7777 51.7908 40.5484 51.7906Z" fill="url(#paint1_linear_1_418)"/>
</g>
<defs>
<linearGradient id="paint0_linear_1_418" x1="18.8725" y1="18.5957" x2="38.725" y2="38.2501" gradientUnits="userSpaceOnUse">
<stop stop-color="#387EB8"/>
<stop offset="1" stop-color="#366994"/>
</linearGradient>
<linearGradient id="paint1_linear_1_418" x1="31.0579" y1="31.2166" x2="52.3772" y2="51.3704" gradientUnits="userSpaceOnUse">
<stop stop-color="#FFE052"/>
<stop offset="1" stop-color="#FFC331"/>
</linearGradient>
<clipPath id="clip0_1_418">
<rect width="40.1606" height="40" fill="white" transform="translate(15 15)"/>
</clipPath>
</defs>
</svg>
